{"title":"Shark Night (2011) R5 NL subs DutchReleaseTeam","uid":6811311,"size":748301687,"categoryP":"video","categoryS":"movies","magnet":"?xt=urn:btih:661706b155b822bfa23779c3f3b142f0a84ced9b&amp;dn=Shark+Night+%282011%29+R5+NL+subs+DutchReleaseTeam&amp;tr=udp%3A%2F%2Ftracker.openbittorrent.com%3A80&amp;tr=udp%3A%2F%2Fopen.demonii.com%3A1337&amp;tr=udp%3A%2F%2Ftracker.coppersurfer.tk%3A6969&amp;tr=udp%3A%2F%2Fexodus.desync.com%3A6969","seeders":0,"leechers":1,"uploader":"Koedje","files":-1,"time":1321044944,"description":" &lt;a href=&quot;http://img11.imageshack.us/img11/3918/sharknight.jpg&quot; rel=&quot;nofollow&quot; target=&quot;_NEW&quot;&gt;http://img11.imageshack.us/img11/3918/sharknight.jpg&lt;/a&gt;\n\n\nVerenigde Staten\nHorror / Thriller\n91 minuten\n\ngeregisseerd door David R. Ellis\nmet Sara Paxton, Alyssa Diaz en Dustin Milligan\n\nEen groepje van zeven studenten brengt een weekendje door in een huisje aan een meer om er een kleine vakantie te houden. Wanneer de vrienden aangevallen worden door bloeddorstige zoetwaterhaaien, zullen ze alles op alles moeten zetten om niet aan hen ten prooi te vallen.\n\n\n\nVertaald door Simply ReleaseS Toppers\nJesprulin\n\n\n\n\n\nScreenshots:\n &lt;a href=&quot;\nhttp://img534.imageshack.us/img534/4815/screenshot1ed.jpg&quot; rel=&quot;nofollow&quot; target=&quot;_NEW&quot;&gt;\nhttp://img534.imageshack.us/img534/4815/screenshot1ed.jpg&lt;/a&gt;\n &lt;a href=&quot;\nhttp://img651.imageshack.us/img651/9900/screenshot2ebb.jpg&quot; rel=&quot;nofollow&quot; target=&quot;_NEW&quot;&gt;\nhttp://img651.imageshack.us/img651/9900/screenshot2ebb.jpg&lt;/a&gt;\n &lt;a href=&quot;\nhttp://img824.imageshack.us/img824/6058/screenshot3rs.jpg&quot; rel=&quot;nofollow&quot; target=&quot;_NEW&quot;&gt;\nhttp://img824.imageshack.us/img824/6058/screenshot3rs.jpg&lt;/a&gt;\n &lt;a href=&quot;\nhttp://img69.imageshack.us/img69/5021/screenshot4ymf.jpg&quot; rel=&quot;nofollow&quot; target=&quot;_NEW&quot;&gt;\nhttp://img69.imageshack.us/img69/5021/screenshot4ymf.jpg&lt;/a&gt;\n\n\n\n\n\nINFO;\n\n\nFormat                                   : AVI\nFormat/Info                              : Audio Video Interleave\nFile size                                : 706 MiB\nDuration                                 : 1h 26mn\nOverall bit rate mode                    : Variable\nOverall bit rate                         : 1 139 Kbps\nWriting application                      : VirtualDubMod 1.5.10.2 (build 2542/release)\nWriting library                          : VirtualDubMod build 2542/release\n\nVideo\nID                                       : 0\nFormat                                   : MPEG-4 Visual\nFormat profile                           : Advanced Simple@L5\nFormat settings, BVOP                    : 1\nFormat settings, QPel                    : No\nFormat settings, GMC                     : No warppoints\nFormat settings, Matrix                  : Default (H.263)\nMuxing mode                              : Packed bitstream\nCodec ID                                 : XVID\nCodec ID/Hint                            : XviD\nDuration                                 : 1h 26mn\nBit rate                                 : 1 018 Kbps\nWidth                                    : 608 pixels\nHeight                                   : 336 pixels\nDisplay aspect ratio                     : 16:9\nFrame rate                               : 25.000 fps\nColor space                              : YUV\nChroma subsampling                       : 4:2:0\nBit depth                                : 8 bits\nScan type                                : Progressive\nCompression mode                         : Lossy\nBits/(Pixel*Frame)                       : 0.199\nStream size                              : 630 MiB (89%)\nWriting library                          : XviD 64\n\nAudio\nID                                       : 1\nFormat                                   : MPEG Audio\nFormat version                           : Version 1\nFormat profile                           : Layer 3\nMode                                     : Joint stereo\nMode extension                           : MS Stereo\nCodec ID                                 : 55\nCodec ID/Hint                            : MP3\nDuration                                 : 1h 26mn\nBit rate mode                            : Variable\nBit rate                                 : 109 Kbps\nNominal bit rate                         : 128 Kbps\nChannel(s)                               : 2 channels\nSampling rate                            : 48.0 KHz\nCompression mode                         : Lossy\nStream size                              : 67.2 MiB (10%)\nAlignment                                : Aligned on interleaves\nInterleave, duration                     : 24 ms (0.60 video frame)\nInterleave, preload duration             : 543 ms\n\n\n\n &lt;a href=&quot;\nhttp://www.imdb.com/title/tt1633356/&quot; rel=&quot;nofollow&quot; target=&quot;_NEW&quot;&gt;\nhttp://www.imdb.com/title/tt1633356/&lt;/a&gt; &lt;a href=&quot;\nhttp://www.moviemeter.nl/film/76080&quot; rel=&quot;nofollow&quot; target=&quot;_NEW&quot;&gt;\nhttp://www.moviemeter.nl/film/76080&lt;/a&gt;\n\n\n\n\n\nDeze film wordt u aangeboden door het DutchReleaseTeam.\nVoor de reviews van de nieuwste films, muziek, series, games etc\nga dan eens naar http://www.hetmultimediacafe.be\n\nDutchReleaseteam = Hardcoded Dutch Subs","torrent":{"xt":"urn:btih:661706b155b822bfa23779c3f3b142f0a84ced9b","amp;dn":"Shark+Night+%282011%29+R5+NL+subs+DutchReleaseTeam","amp;tr":["udp%3A%2F%2Ftracker.openbittorrent.com%3A80","udp%3A%2F%2Fopen.demonii.com%3A1337","udp%3A%2F%2Ftracker.coppersurfer.tk%3A6969","udp%3A%2F%2Fexodus.desync.com%3A6969"],"infoHash":"661706b155b822bfa23779c3f3b142f0a84ced9b","infoHashBuffer":{"type":"Buffer","data":[102,23,6,177,85,184,34,191,162,55,121,195,243,177,66,240,168,76,237,155]},"announce":[],"urlList":[]}}